<svg fill="none" height="200" viewBox="0 0 400 200" width="400" xmlns="http://www.w3.org/2000/svg"><g fill="#746f89"><path d="m372.178 158.796c-2.394-3.166-3.834-8.156-5.839-12.461-.724-1.555-2.967-1.54-3.672.019-1.444 3.193-3.102 8.409-5.025 11.288-1.504 2.247-7.513 4.982-8.836 6.102-.961.814-.954 2.297.019 3.102 1.334 1.105 7.543 6.435 8.274 7.597.694 1.1 4.479 9.154 5.798 11.984.724 1.555 2.967 1.544 3.672-.019 1.613-3.56 4.519-10.297 5.379-12.049 1.251-2.549 4.459-4.297 8.463-7.687.961-.813.953-2.296-.019-3.102-1.338-1.104-7.046-3.234-8.214-4.774z"/><path d="m323.082 149.274c-.49.408-.49 1.161 0 1.57.671.563 1.319 1.176 1.945 1.835 2.126 2.254 3.8 4.936 5.119 7.808.362.786 1.496.786 1.858 0 1.32-2.872 2.993-5.554 5.119-7.808.622-.663 1.271-1.272 1.946-1.835.49-.409.49-1.162 0-1.57-.671-.564-1.32-1.177-1.946-1.835-2.126-2.255-3.799-4.937-5.119-7.808-.362-.787-1.496-.787-1.858 0-1.493 3.246-2.345 4.865-5.119 7.808-.626.658-1.274 1.271-1.945 1.835z"/><path d="m379.724 130.219c-.607.507-.607 1.438 0 1.944.833.7 1.64 1.457 2.409 2.278 2.635 2.795 4.712 6.125 6.348 9.684.449.976 1.855.976 2.307 0 1.636-3.559 3.713-6.885 6.348-9.684.773-.817 1.576-1.578 2.409-2.278.607-.506.607-1.437 0-1.944-.833-.7-1.64-1.456-2.409-2.277-2.635-2.796-4.712-6.125-6.348-9.685-.449-.976-1.855-.976-2.307 0-1.851 4.025-2.91 6.034-6.348 9.685-.773.817-1.576 1.577-2.409 2.277z"/></g><path d="m231.662 83.8621c0 .0457-.004.0915-.008.1411.012-.0915.015-.1373.008-.1411z" fill="#fff"/><path d="m190.347 130.327c4.211 6.34 9.515 1.169 11.03-.813 2.303-3.015 4.686-5.978 6.819-9.114 2.345-3.454 4.441-7.078 6.65-10.626.791-1.275 1.579-2.55 2.394-3.81.132-.204.392-.321.591-.48.015.242.061.484.046.723-.117 2.012-.298 4.025-.358 6.037-.076 2.505-.049 5.016-.083 7.525-.015 1.286-.061 2.572-.095 3.858-.052 2.047-.166 4.097-.15 6.144.018 2.754.12 5.508.218 8.258.102 2.86.226 5.72.37 8.576.116 2.334.248 4.672.426 7.003.184 2.466.35 4.936.671 7.384.343 2.625.912 5.224 1.289 7.846.475 3.299 1.255 6.51 2.582 9.563 1.172 2.698 3.136 3.84 6.065 3.704 1.452-.068 2.564-.67 3.08-2.092.486-1.343 1.04-2.678 1.353-4.067 1.486-6.597 2.213-13.308 2.439-20.05.223-6.635.095-13.282.072-19.917-.042-11.168-2.303-23.61-2.119-23.742 8.98-6.571 15.58-13.9483 17.039-15.4501.113-.1173 1.919-2.947 2.054-3.0416.019.1551-1.017 2.8032-1.048 2.947-.165.8171-.339 1.6342-.539 2.4438-.279 1.1429-5.073 20.3829-2.084 29.3219.309.927.769 1.687 1.628 2.051 1.214.506 2.469.953 3.744 1.255 1.093.262 2.19 0 2.985-.854.566-.606 1.078-1.294 1.47-2.024 2.138-3.961 4.203-7.96 6.348-11.917 4.026-7.422 8.09-14.825 12.142-22.2401.181-.3291.373-.6507.562-.976-.057.4161-.064.8436-.174 1.2484-.459 1.7175-2.16 10.4107-2.548 13.0437-.075.511-.577 7.483-.497 10.468.083 3.094-.083 6.223.705 9.268.682 2.637 1.945 4.751 4.738 5.629 3.34 1.048 6.167-1.57 10.732-9.87 3.114-5.663 25.113-43.3454 25.317-43.4929-.053.227-5.572 10.6302-6.262 16.7171-2.145 18.9148 4.954 23.2468 6.842 24.3968 5.353 3.268 9.933 3.73 14.193-.749 5.963-6.273 10.227-15.117 14.234-21.0943-.053.9493.113 4.5093.332 6.1243.41 3.049 1.481 5.838 2.917 8.546 1.259 2.376 3.163 3.787 5.609 4.721 3.08 1.181 5.538.201 7.66-1.993 1.813-1.877 3.585-3.81 5.244-5.826 2.28-2.773 4.561-5.565 6.615-8.504 1.855-2.6484 3.484-5.4705 5.067-8.2926.92-1.6343 1.692-3.3858 2.269-5.1676.324-1.0063.701-2.1866.55-3.261-.162-1.1538-3.66 1.1538-4.135 2.1677-2.05 4.3883-4.595 8.4701-7.52 12.3025-2.281 2.988-4.678 5.901-7.178 8.712-1.632 1.835-3.49 3.48-5.337 5.111-1.022.904-1.233.753-1.418-.575-.629-4.551-.516-9.098-.132-13.6643.411-4.899.705-9.8093 1.863-14.6062.101-.4161.395-.9003.742-1.1273 3.883-2.5422 7.634-5.2206 11.045-8.4172 5.131-4.8082 7.762-10.6416 7.886-17.6326.03-1.7401-.166-3.503-1.153-5.0389-1.38-2.1488-3.483-3.1399-5.877-3.6431-1.651-.348-3.167.019-4.614.8437-2.812 1.6077-5.127 3.7905-7.272 6.1927-2.642 2.9621-4.716 6.3214-6.404 9.8737-1.455 3.0604-2.673 6.2684-3.653 9.5142-.973 3.2231-1.512 6.5786-2.243 9.8736-.249 1.1198-.324 2.3228-.803 3.3329-.773 1.6304-1.79 3.1512-2.748 4.6909-.471.7566-5.579 10.5239-9.273 15.9079-1.67 2.008-10.894 16.584-13.673 6.4-1.338-4.91-1.726-9.881-1.277-14.92.309-3.4763 1.089-6.8772 2.171-10.1987.701-2.1563 1.3-4.3542 2.16-6.4462 1.021-2.4779 2.198-4.899 3.449-7.2672 1.025-1.9331 2.258-3.7603 3.412-5.6215.12-.1967.343-.3291.52-.4918.064.2459.196.4994.181.7415-.185 2.8902.015 5.3908-.23 8.2772-.076.9117.429 2.4665 1.217 2.9848.634.4199.528.4501 1.233.7112 1.176.435 1.67.1626 1.99-1.0744.856-3.295 1.176-6.6732 1.278-10.0552.061-1.9445.012-3.9381-.373-5.8334-.788-3.8965-3.966-5.4021-7.498-3.6809-3.053 1.4905-5.511 3.8057-7.799 6.2382-4.275 4.5472-30.986 48.7444-34.228 54.2064-1.783 3-1.802-.227-1.738-.794.234-2.069.539-4.127.792-6.197.362-2.966.644-5.939 1.055-8.897.377-2.686.879-5.353 1.335-8.0279.147-.8587.286-1.7175.486-2.5649.332-1.4186.739-2.8183 1.059-4.2369.358-1.5889.618-3.2005.992-4.7893.637-2.7124 1.342-5.4097 1.998-8.1183.697-2.8751 1.368-5.7578 2.05-8.6366.475-1.9975.977-3.9911 1.406-5.9999.087-.4085.034-.9571-.177-1.3051-.803-1.3278-1.956-2.2585-3.506-2.5876-.637-.1362-1.168.053-1.481.6885-1.527 3.0945-7.815 15.8357-9.59 19.0323-.079.1438-.226.2497-.343.3707-.075-.1513-.173-.295-.226-.4501-.174-.5334-1.644-8.3605-9.665-9.0944-2.858-.261-5.44.4199-7.57 2.4401-2.936 2.7767-4.885 6.2306-6.616 9.832-.497 1.0327-.833 2.1903-1.511 3.0869-1.813 2.3909-3.74 4.6947-5.681 6.9797-10.095 11.8788-16.997 15.3438-17.676 16.6978-.248.5-.388 1.124-.316 1.676.324 2.565.305 4.354.622 6.916.901 7.331 1.376 14.685 1.217 22.077-.181 8.395-.433 16.751-1.911 25.025-.418 2.334-.852 4.91-1.851 6.968-.083.17-.177.352-.271.526-.053-.167-.128-.329-.151-.496-.109-.794-.253-1.589-.298-2.387-.177-3.136-.35-6.272-.463-9.408-.144-3.897-.272-7.797-.328-11.697-.042-2.962.03-5.924.067-8.883.864-41.4765 4.03-57.4257 4.151-57.3197.064-1.6797.867-2.2358 1.772-3.5561.61-.8928 1.194-1.8045 1.771-2.7199 2.213-3.5069 4.422-7.0175 6.623-10.5357 3.031-4.8498 6.179-9.6353 9.04-14.5835 2.985-5.16 5.756-10.4524 8.497-15.7486 1.44-2.7843 2.763-5.648 3.879-8.5761 1.511-3.9721 2.966-7.9935 3.396-12.2683.158-1.5888.283-3.2231.075-4.793-.49-3.72627-3.053-5.82962-6.227-7.29742-1.429-.66203-2.918-.61285-4.475-.25725-2.013.46153-3.622 1.54725-5.138 2.83725-1.715 1.46024-8.647 9.24942-13.208 18.12432-2.341 4.551-4.399 9.1625-6.344 13.8572-.962 2.3152-1.825 4.672-2.613 7.0515-.712 2.1487-1.293 4.3429-1.87 6.537-1.089 4.1424-2.22 8.2734-3.166 12.4499-.622 2.7427-3.932 23.9464-4.346 26.6928-.106.7075-.276 1.4565-.626 2.0618-.976 1.6872-2.092 3.295-3.103 4.9671-2.34 3.8817-4.617 7.8047-6.988 11.6707-2.04 3.325-4.072 6.662-6.299 9.858-1.708 2.448-4.188 6.046-5.587 7.018-.524.363-.441.336-.792-.201-.497-.771-.889-3.317-1.093-5.005-.407-3.359-1.847-22.3042-1.851-23.6547-.003-1.4149-.018-2.894.366-4.2332.633-2.2017 1.591-4.3126 2.401-6.4652 1.293-3.4274 2.601-6.8472 3.864-10.2822 2.07-5.6291 4.173-11.2506 6.133-16.9175 4.931-14.2393 8.056-29.3599 8.655-33.003.524-3.1928.796-6.45.852-9.6882.049-2.7465-.166-5.5572-2.043-7.85353-2.005-2.45517-4.49-4.07051-7.762-3.70734-2.683.29886-12.36 2.77294-19.847 37.74297-.603 2.8222-1.002 5.6935-1.353 8.5572-.46 3.7414-.84 7.4941-1.127 11.2506-.392 5.1147-.848 24.6387-.776 27.4457.064 2.6708.248 5.3416.395 8.0124.061 1.1387.155 2.277.242 3.416.139 1.922.177 3.219.177 3.219-.057.084-4.437 10.498-6.224 14.357-1.609 3.48-3.359 6.904-5.255 10.237-1.146 2.012-2.571 3.896-4.071 5.663-1.613 1.899-2.669 1.592-3.524-.791-1.35-3.753-2.198-7.634-2.797-11.564-.491-3.242-.913-6.496-1.256-9.753-.373-3.503-.644-7.017-.912-10.528-.181-2.364-.177-4.7516-.449-7.1046-.177-1.5548.023-2.9848.532-4.4185 1.123-3.1513 2.243-6.3063 3.359-9.4613 1.553-4.4072 3.151-8.8031 4.632-13.2367 1.162-3.4728 2.194-6.991 3.254-10.4979.867-2.8713 1.749-5.7426 2.522-8.6404 1.078-4.0402 2.092-8.0994 3.068-12.1623.513-2.1374.98-4.2937 1.312-6.4652.452-2.962.761-5.9468 1.127-8.9241.539-4.392.539-8.7803-.305-13.13075-.747-3.83975-2.537-6.85858-6.446-8.371785-2.662-1.028977-5.108-.4501776-6.752 1.293785-1.745 1.84989-3.193 4.0516-4.44 6.28357-1.297 2.32658-2.281 4.84228-3.254 7.33148-.976 2.4968-4.35 15.2644-5.164 19.1041-.347 1.6381-.686 3.2799-.916 4.9368-.4 2.8978-.795 5.8032-1.044 8.7161-.475 5.561-.95 11.1258-1.218 16.6982-.188 3.9683-.06 7.9518-.022 11.9315.026 2.72.117 5.44.211 8.16.064 1.7742.173 3.5484.286 5.3227.192 2.9507.46 5.9014.6 8.8522.075 1.6271.35 3.3931-.144 4.8691-1.406 4.199-3.128 8.296-4.791 12.408-.678 1.68-1.523 3.291-2.307 4.929-.098.204-.279.363-.418.545-.064-.189-.155-.371-.192-.564-.136-.647-.306-1.294-.37-1.948-.271-2.913-.516-5.826-.758-8.743-.241-2.916-.505-5.833-.686-8.753-.166-2.7129-.245-5.4328-.35-8.149-.083-2.2206-.23-4.4451-.204-6.6657.049-3.7641.238-7.5281.317-11.2922.041-2.0542-.072-4.1122-.019-6.1701.03-1.1803-.434-2.0277-1.331-2.6784-1.986-1.4451-4.263-1.6342-6.585-1.3392-.739.0946-1.5.5107-1.602 1.43-.404 3.6317-3.924 32.0988-4.882 37.2776-1.142 6.182-2.247 12.371-3.54 18.522-1.025 4.88-2.288 9.711-3.479 14.557-.256 1.048-.652 2.058-1.003 3.079-.049.144-.199.257-.301.382-.079-.144-.189-.276-.23-.427-.223-.81-.468-1.612-.63-2.433-.784-4.002-1.602-8.001-2.288-12.022-.546-3.189-.92-6.409-1.364-9.617-.212-1.517-.46-3.034-.592-4.558-.317-3.685-.585-7.377-.848-11.065-.287-3.999-.558-7.9939-.815-11.9925-.15-2.3644-.237-4.7363-.403-7.1007-.09-1.2673-.686-2.2774-1.866-2.841-1.478-.7075-3.05-.976-4.678-.8172-1.169.1135-1.923.8247-2.224 1.9294-.238.8738-.426 1.7818-.475 2.6821-.23 4.1084-.403 8.2205-.588 12.3326-.015.3102.06.628.064.9382.007 1.324.124 2.6632-.023 3.9684-.4633 4.1617-1.0212 8.3117-1.5603 12.4607-.5504 4.26-1.0329 8.531-1.7039 12.772-1.0404 6.552-2.1411 13.097-3.3549 19.619-1.0103 5.421-2.2693 10.789-4.3728 15.915-.098.238-.2978.435-.4523.65-.1395-.189-.3129-.363-.4147-.571-1.0404-2.168-2.1826-4.294-3.0722-6.522-1.8056-4.528-3.4982-9.106-5.1832-13.683-.7728-2.092-1.4702-4.214-2.1223-6.352-.7313-2.398-1.4325-4.812-2.0318-7.244-.4109-1.665-.2224-3.287.6483-4.854 1.7265-3.109 3.3588-6.272 5.0136-9.419 2.5521-4.854 4.3426-9.984 5.3981-15.3593.5278-2.6935.6936-5.4173.1056-8.1259-.3355-1.5321-1.1272-2.7465-2.6425-3.4161-2.8913-1.2824-5.4509-.7339-7.2792 1.8953-1.5266 2.198-2.9968 4.4715-4.1465 6.8813-2.9705 6.2267-5.0249 12.8097-6.7363 19.4787-1.8924 7.373-3.4492 14.826-4.5122 22.373-.705 5.012-1.3571 10.032-2.0432 15.048-.0226.171-.1206.333-.1809.5-.0566-.159-.1282-.314-.1621-.477-.4561-2.209-.9047-4.422-1.3646-6.628-.4524-2.182-.9349-4.358-1.3684-6.544-.4335-2.187-.8104-4.385-1.2326-6.575-.7615-3.968-1.5456-7.929-2.2957-11.898-.3996-2.122-.7464-4.256-1.1196-6.385-.2714-1.536-.5918-3.065-.8029-4.608-.3242-2.338-.5768-4.683-.8444-7.025-.0339-.303-.0038-.636.0867-.927.4825-1.5699 1.0027-3.1247 1.489-4.6909 1.4475-4.6682 2.9817-9.3099 4.3011-14.0122 1.3835-4.9406 2.6764-9.9115 3.7809-14.9202.9349-4.2218 1.7114-8.4928 2.2543-12.7827.5956-4.7136.7689-9.4764.2261-14.2279-.3242-2.8297-.9575-5.5572-2.4163-8.0616-1.587-2.72-4.1239-3.8965-7.0303-4.0478-1.391-.0719-2.9441.5939-4.2144 1.256-5.481 2.8713-8.4289 12.9492-9.0697 16.0096-7.5355 36.1201-.3167 60.3237-.0076 62.4837.2677 1.854.7728 3.67 1.0819 5.516.2978 1.778.7879 3.567.2149 5.379-1.587 5.028-3.2004 10.044-4.7723 15.075-1.1422 3.666-2.2316 7.347-3.3512 11.02-.0679.227-.196.435-.2978.651-.1772-.197-.3996-.363-.5202-.59-.7539-1.37-1.4852-2.754-2.2241-4.131-1.1459-2.13-2.2957-4.256-3.4416-6.386-.9914-1.846-1.9904-3.684-2.963-5.542-1.7867-3.416-6.4083-12.344-7.4148-14.773-1.1082-2.667-2.5105-5.368-3.4982-8.084-1.3005-3.579-2.2391-7.2481-2.78571-11.0235-.4222-2.9016-1.10073-6.2306-.28273-9.1019 2.01674-7.0704 7.59954-6.102 9.50314-4.8044 5.4584 3.7149 7.9916 9.1927 9.9028 15.3325.1357.4312.2073.9192.4674 1.2597.2225.2875.6748.5448 1.0178.541.2413-.0038.6484-.4615.6748-.749.1055-1.0668.2714-2.1791.0829-3.2118-.6446-3.5636-1.8735-7.1083-3.9241-10.0666-1.8773-2.701-4.2333-5.5988-7.2339-6.9342-3.8375-1.7099-14.61479-4.2067-18.65204 7.6643-.54282 1.6002-1.127111 3.2459-1.323131 4.9179-.512667 4.3278-.1432452 8.6518.833081 12.877.65968 2.849 1.51539 5.671 2.53695 8.41 1.63224 4.373 7.32054 15.877 8.39864 17.856 1.4137 2.599 2.7933 5.217 4.2069 7.815.8143 1.495 1.6813 2.955 2.4955 4.449.8633 1.589 1.6586 3.22 2.5407 4.797 1.5795 2.818 3.2532 5.584 4.7837 8.429.9386 1.747 1.7415 3.575 2.4917 5.413.2488.605.3053 1.396.1658 2.035-1.357 6.186-2.3786 12.405-2.6877 18.749-.2224 4.577-.0188 9.09 1.3194 13.486.6483 2.13 1.5644 4.245 3.7658 5.175 4.8779 2.066 9.0131-.298 11.0487-5.05 1.0555-2.463 1.4325-5.133 1.636-7.846.3845-5.054-.441-9.964-1.5003-14.841-.7237-3.332-1.6284-6.646-2.7367-9.873-1.3118-3.817-2.9478-7.525-4.3878-11.3-.2149-.567-.3091-1.301-.147-1.873.7313-2.621 1.5455-5.22 2.3786-7.811 1.6624-5.149 3.3549-10.29 5.0475-15.428.0716-.215.2262-.401.3393-.601.0904.216.2111.424.2601.647.7086 3.159 1.3683 6.329 2.1185 9.476.5202 2.191 1.1799 4.347 1.7378 6.526.9688 3.775 1.8169 7.589 2.8837 11.334 1.1196 3.923 2.4352 7.789 3.6792 11.678.2978.931.6257 1.85.965 2.765 1.112 3.008 2.2504 6.004 3.3399 9.019.4071 1.124 1.2929 1.403 2.2994 1.453.5843.026 1.1837-.076 1.7604-.205 1.1686-.261 1.6624-.734 1.6813-1.937.0226-1.316-.1131-2.644-.279-3.957-.2714-2.182-.9311-4.358-.8783-6.525.1319-5.376.3242-10.77.9499-16.101.72-6.128 1.8132-12.219 2.9705-18.283.9349-4.899 2.0884-9.764 3.3474-14.591 1.489-5.712 3.3436-11.322 5.711-16.7359 1.6247-3.7149 3.3587-7.3845 6.1444-10.4184.1998-.2194.4675-.3745.7049-.5599.1282.2989.3318.5864.377.8966.4486 3.1701-.098 6.2684-.7803 9.3402-1.1007 4.9744-3.0722 9.6314-5.2021 14.2314-1.4588 3.148-3.1325 6.151-5.349 8.837-1.4212 1.722-2.3598 3.636-2.0507 5.962.2412 1.824.3958 3.67.7954 5.463.72 3.223 1.4475 6.461 2.4389 9.605 1.0254 3.253 2.3032 6.431 3.6 9.586 1.5908 3.87 3.2758 7.695 5.6393 11.187 2.5332 3.741 6.0163 4.456 9.9518 2.871.6484-.261 1.2515-.931 1.6134-1.563 1.6285-2.844 2.5407-5.992 3.1966-9.162 1.4664-7.074 2.7858-14.179 4.0181-21.298.89-5.122 1.542-10.286 2.307-15.431.023-.148.106-.288.162-.431.076.151.181.291.219.45.313 1.358.637 2.716.912 4.082.445 2.22.784 4.464 1.305 6.661.539 2.274 1.183 4.525 1.881 6.757.995 3.2 2.084 6.367 3.83 9.261.953 1.585 2.265 2.644 4.15 2.81.652.057 1.315-.049 1.975-.071 2.119-.072 3.415-1.4 4.23-3.121.754-1.597 1.285-3.326 1.734-5.043.946-3.609 1.828-7.233 2.635-10.872.95-4.294 1.809-8.614 2.68-12.927.652-3.219 1.263-6.442 1.9-9.666.03-.151.132-.291.203-.435.038.121.095.239.113.36.453 2.629.751 5.292 1.384 7.876.803 3.276 1.47 6.613 3.072 9.639.656 1.241 1.334 2.516 2.646 3.151 2.458 1.192 6.439 1.483 8.124-2.054 1.221-2.565 3.69-8.462 5.164-12.003.102-.242.26-.466.388-.696.091.249.208.495.264.756.43 1.967.894 3.931 1.252 5.913.671 3.673 1.545 7.286 2.838 10.797.958 2.599 2.04 5.092 3.834 7.256 1.923 2.315 4.441 3.147 7.294 3.2 2.111.038 3.777-1.124 5.082-2.569 1.432-1.589 2.608-3.431 3.765-5.243l9.685-19.974c.037-.004 1.353 12.37 4.915 17.727zm168.577-51.3316c.901-4.2407 2.168-8.3642 4.041-12.2796 1.35-2.8221 1.632-4.1462 4.056-7.6417 1.425-2.0504 2.179-3.4312 4.041-3.7868.52-.0983 3.125.3519.788 7.9027-1.101 3.556-2.507 6.7754-4.964 9.5218-2.24 2.5006-4.765 4.6872-7.472 6.6619-.181.1324-.407.2043-.614.3064.041-.2232.075-.4539.124-.6847zm-100.871 39.6796c.728-3.147 1.451-6.298 2.19-9.446.517-2.202 1.007-4.411 1.61-6.59.501-1.804 1.119-3.5823 1.741-5.349.864-2.4552 1.663-4.9482 2.703-7.3277 1.587-3.6317 3.182-7.2823 5.93-10.2481.211-.227.46-.4237.693-.628.351-.3102.6-.2383.811.1778.441.8701 2.624 4.8574 2.974 7.6114.17.1135-3.479 6.537-5.628 10.2065-2.948 5.0241-5.896 10.0481-8.847 15.0711-1.308 2.225-2.62 4.449-3.936 6.67-.06.102-.181.17-.271.253.004-.136 0-.272.03-.401zm-23.518-51.1648c.606-2.6065 1.225-5.213 1.843-7.8195.482-2.0314.961-4.0629 1.459-6.0868.422-1.7137.806-3.4425 1.319-5.1335.841-2.7919 1.711-5.58 2.684-8.3264.811-2.2812 1.764-4.5132 2.692-6.7527.851-2.0542 1.654-4.1386 2.657-6.1209 1.538-3.0415 6.744-11.6705 7.626-13.0362 5.817-9.01112 11.184-6.70348 6.035 6.2949-1.462 3.6884-11.418 23.0801-14.223 27.9753-3.272 5.7086-6.868 11.2317-10.321 16.8344-.475.7717-.935 1.5548-1.41 2.3265-.067.1097-.181.1892-.275.2837-.034-.1437-.117-.3064-.086-.4388zm-41.504 3.4463c.072-2.5724.343-10.9631 2.089-25.8833 1.896-16.2139 7.852-28.7697 9.782-31.5956 3.577-5.23946 7.162-3.99107 5.021 9.8434-1.059 6.8548-3.321 15.2833-4.622 19.9439-1.236 4.4299-2.65 8.8107-4.139 13.1649-1.941 5.6783-4.037 11.2998-6.065 16.9478-.637 1.7743-1.27 3.5485-1.911 5.3189-.057.1551-.159.2951-.242.4464-.026-.1588-.079-.3177-.075-.4728.045-2.5725.091-5.1449.162-7.7136zm-34.654-3.4728c.034-2.8599.102-5.7161.219-8.5723.053-1.2862.271-2.561.392-3.8473.403-4.3277.641-8.6782 1.232-12.9794.641-4.6531 3.77-21.4686 7.894-30.8731 3.562-8.12969 5.847-8.68201 5.195 3.2761-.23 2.5459-.883 11.9051-3.604 22.6072-1.142 4.4942-2.073 9.0451-3.223 13.5356-1.15 4.4904-2.371 8.9695-3.66 13.422-1.32 4.5586-2.764 9.083-4.158 13.6189-.049.1551-.166.2875-.253.4312-.026-.1589-.075-.3215-.075-.4804.011-3.382 0-6.7603.041-10.1385zm-122.6441 114.4473c.7803 3.17.9763 6.42.7728 9.665-.1131 1.809-.5353 3.579-1.6926 5.089-.9989 1.305-1.6284 1.392-2.7669.223-1.8169-1.865-2.4201-4.283-2.9063-6.723-.2451-1.225-.377-2.485-.4562-3.733-.0754-1.219-.015-2.44-.015-3.662-.1094-5.648.7539-11.194 1.8508-16.71.0377-.185.132-.359.1998-.541.0792.178.1697.352.2413.534.6182 1.622 1.3457 3.215 1.8282 4.88 1.0555 3.639 2.0394 7.301 2.9441 10.978zm13.8194-90.6446c-1.3684-11.402-1.3721-24.268-1.3043-26.8366.0679-2.406.1319-4.8158.2676-7.218.1169-2.0882.3205-4.1727.5014-6.2571.0829-.9382.147-1.8839.3204-2.807.3619-1.9482.7162-3.904 1.2101-5.822.5315-2.058 1.0969-4.1197 1.8848-6.0869.5616-1.3959 1.5003-5.6329 3.9204-3.6581 3.2758 2.6708 5.251 16.1156-.3355 35.6056-2.1487 7.5055-3.9657 15.1055-5.9673 22.6564-.0453.1702-.098.3367-.1659.4955-.0377.0871-.1131.1627-.1696.2422-.0528-.106-.147-.2043-.1621-.314z" fill="#b8b1c9"/></svg>