<svg enable-background="new 0 0 72 72" viewBox="0 0 72 72" xmlns="http://www.w3.org/2000/svg"><g><path d="m26.1 59.4c-.1 0-.1.1-.2.1h.1s.1-.1.1-.1z"/><path d="m38 57.1c0-.1 0-.1 0 .2 0 0 0 0 0-.1s0-.1 0-.1z"/><path d="m36.8 59.4c-.1 0-.1.1-.2.1h.1s0-.1.1-.1z"/><path d="m17.7 60s-.1-.1-.2-.1c.1 0 .2 0 .2.1z"/><path d="m15.9 58.1c0-.1 0-.1-.1-.2 0 .1 0 .2.1.2z"/></g><path d="m55.7 16.7-.2-.1c0 .1.1.1.2.1z"/><path d="m56.3 21.8.1-.1c0 .1 0 .1-.1.1z"/><path d="m55.8 16.8-.1-.1s.1.1.1.1z"/><path d="m60.6 19.2-.4-2c-.4-1.8-1.2-3.5-3-4.1-.6-.2-1.3-.3-1.7-.7-.5-.4-.6-1.1-.7-1.7-.2-1.1-.4-2.3-.6-3.4-.2-1-.3-2.1-.8-3-.6-1.2-1.8-1.9-3-2.4-.6-.2-1.2-.4-1.9-.6-3-.8-6.1-1.1-9.2-1.2-3.6-.2-7.3-.2-11 .1-2.7.2-5.6.6-8.3 1.5-1 .3-1.9.8-2.7 1.5-.9.9-1.2 2.3-.5 3.4.5.8 1.2 1.4 2.1 1.7 1.1.5 2.2.9 3.4 1.1 3.2.7 6.6 1 9.9 1.1 3.7.1 7.3 0 10.9-.4.9-.1 1.8-.2 2.7-.4 1.1-.2 1.7-1.5 1.4-2.5-.4-1.1-1.4-1.6-2.5-1.4-.2 0-.3.1-.5.1h-.1c-.4 0-.8.1-1.1.1-.8.1-1.6.2-2.4.2-1.8.1-3.6.2-5.3.2-1.8 0-3.5 0-5.3-.2-.8-.1-1.6-.1-2.4-.2-.4 0-.7-.1-1.1-.1h-.3-.1l-.4.1c-.7-.1-1.5-.2-2.2-.4-.1 0-.1-.1-.2-.1 0-.1-.1-.1-.1-.2s0-.1.1-.2c0-.1.1-.1.2-.1.6-.1 1.3-.2 1.9-.3.2 0 .4-.1.6-.1.4 0 .8-.1 1.2-.1 3.4-.4 6.8-.5 10.3-.4 1.7 0 3.3.1 5 .3.4 0 .7.1 1.1.1.1 0 .3 0 .4.1h.3c.8.1 1.6.3 2.4.4 1.2.3 2.7.3 3.2 1.6.2.4.2.9.3 1.3l.1.5c.3 1.3.6 2.6.8 3.9v.3c0 .1-.1.2-.1.3s0 .2-.1.2c-.1.1-.2.1-.3.1h-.2-.2c-.5.1-1.1.1-1.6.2-1 .1-2.1.2-3.1.3-2.1.2-4.2.3-6.3.3-1.1 0-2.1 0-3.2 0-4.3 0-8.5-.3-12.7-.7-.5-.1-.9-.1-1.4-.2.4 0-.3 0-.4-.1-.3 0-.6-.1-.9-.1-1-.1-1.9-.3-2.9-.5-1.2-.2-2.3-.1-3.4.5-.9.5-1.6 1.2-2 2.1-.5.9-.6 2-.8 3s-.5 2.1-.4 3.2c.3 2.3 1.8 4.1 4.1 4.5 2.1.4 4.3.7 6.4 1 8.5 1 17 1.2 25.5.4.7-.1 1.4-.1 2.1-.2.2 0 .4 0 .6.1s.4.2.5.3.3.3.3.5c.1.2.1.4.1.6l-.2 2.1c-.4 4.2-.9 8.4-1.3 12.7-.5 4.4-.9 8.9-1.4 13.3-.1 1.2-.3 2.5-.4 3.7s-.1 2.5-.4 3.7c-.4 1.9-1.7 3.1-3.5 3.5-1.7.4-3.5.6-5.3.6-2 0-3.9-.1-5.9-.1-2.1 0-4.7-.2-6.3-1.7-1.4-1.4-1.6-3.5-1.8-5.4-.3-2.5-.5-4.9-.8-7.4l-1.1-13.4-.9-8.8c0-.1 0-.3 0-.4-.1-1.1-.9-2.1-2-2-1 0-2.2.9-2 2l.7 6.6 1.4 13.6c.4 3.9.8 7.7 1.2 11.6.1.7.2 1.5.2 2.2.4 4 3.5 6.2 7.3 6.8 2.2.4 4.5.4 6.8.5 2.9 0 5.8.2 8.7-.4 4.2-.8 7.4-3.6 7.8-8 .1-1.3.3-2.5.4-3.8.4-4.2.9-8.4 1.3-12.5l1.4-13.7.6-6.3c0-.3.2-.6.4-.8s.5-.4.8-.4c1.2-.2 2.4-.6 3.2-1.6 1.3-1.6 1.5-3.5 1-5.4zm-45.4 1.3v.2c0-.1 0-.2 0-.2zm.1.9s.1.1 0 0zm.1.2c.1.1.1.1 0 0zm40.8-.1c-.4.4-1.1.6-1.7.7-7.2 1.1-14.6 1.6-21.9 1.4-5.2-.2-10.4-.8-15.6-1.5-.5-.1-1.1-.2-1.4-.5-.7-.7-.3-2.1-.2-3 .2-.8.5-1.8 1.4-1.9 1.5-.2 3.1.4 4.6.7 1.7.3 3.5.5 5.2.6 7.4.7 15 .6 22.4-.4 1.4-.2 2.7-.4 4-.6 1.2-.2 2.5-.6 3.2.6.5.8.6 2 .5 2.9 0 .3-.2.7-.5 1z"/><path d="m37.7 33.2c-2.6 1.1-5.5 2.4-9.3 2.4-1.6 0-3.2-.2-4.7-.6l2.6 27c.1 1.1.6 2.2 1.4 2.9.8.8 1.9 1.2 3.1 1.2 0 0 3.7.2 5 .2s5.4-.2 5.4-.2c1.1 0 2.2-.4 3.1-1.2.8-.8 1.3-1.8 1.4-2.9l2.8-29.8c-1.3-.4-2.5-.7-4-.7-2.5-.1-4.5.7-6.8 1.7z" opacity=".5"/></svg>