<svg enable-background="new 0 0 72 72" viewBox="0 0 72 72" alt="" aria-hidden="true" xmlns="http://www.w3.org/2000/svg"><path d="m36 6.5c9.6 0 10.7 0 14.5.2 3.6.2 5.5.8 6.7 1.3 1.7.6 2.9 1.4 4.1 2.7 1.3 1.3 2 2.5 2.7 4.1.5 1.3 1.1 3.2 1.2 6.7.2 3.8.2 4.9.2 14.5s0 10.7-.2 14.5c-.2 3.5-.7 5.4-1.2 6.7-.6 1.7-1.4 2.9-2.7 4.1-1.3 1.3-2.5 2-4.1 2.7-1.3.5-3.2 1.1-6.7 1.2-3.8.2-4.9.2-14.5.2s-10.7 0-14.5-.2c-3.5-.2-5.4-.7-6.7-1.2-1.7-.6-2.9-1.4-4.1-2.7-1.3-1.3-2-2.5-2.7-4.1-.5-1.3-1.1-3.2-1.2-6.7-.2-3.8-.2-4.9-.2-14.5s0-10.7.2-14.5c.1-3.6.7-5.5 1.2-6.7.6-1.7 1.4-2.9 2.7-4.1 1.3-1.3 2.5-2 4.1-2.7 1.3-.5 3.2-1.1 6.7-1.2 3.8-.2 4.9-.3 14.5-.3zm0-6.5c-9.8 0-11 0-14.8.2s-6.4.8-8.7 1.7c-2.4.9-4.4 2.1-6.4 4.2-2 2-3.2 4-4.2 6.4-.9 2.3-1.5 4.9-1.7 8.7-.1 3.8-.2 5-.2 14.8s0 11 .2 14.8.8 6.4 1.7 8.7c.9 2.4 2.1 4.4 4.2 6.4 2 2 4 3.2 6.4 4.1 2.3.9 4.9 1.5 8.7 1.7s5 .3 14.8.3 11 0 14.8-.2 6.4-.8 8.7-1.7c2.4-.9 4.4-2.1 6.4-4.1s3.2-4 4.1-6.4c.9-2.3 1.5-4.9 1.7-8.7s.2-5.1.2-14.8c0-9.8 0-11-.2-14.8s-.8-6.4-1.7-8.7c-.9-2.4-2.1-4.4-4.1-6.4s-4-3.2-6.4-4.1c-2.3-.9-4.9-1.5-8.7-1.7-3.8-.3-5-.4-14.8-.4z"/><path d="m36 17.5c-10.2 0-18.5 8.3-18.5 18.5s8.3 18.5 18.5 18.5 18.5-8.3 18.5-18.5-8.3-18.5-18.5-18.5zm0 30.5c-6.6 0-12-5.4-12-12s5.4-12 12-12 12 5.4 12 12-5.4 12-12 12z"/><path d="m59.5 16.8c0 2.4-1.9 4.3-4.3 4.3s-4.3-1.9-4.3-4.3 1.9-4.3 4.3-4.3 4.3 1.9 4.3 4.3z"/></svg>