<svg xmlns="http://www.w3.org/2000/svg" viewBox="0 0 72 72" alt="" aria-hidden="true"><path d="M36 .9C16.1.9 0 17 0 36.9 0 52.8 10.3 66.3 24.6 71c1.8.3 2.5-.8 2.5-1.7v-6.7c-9 1.7-11.4-2.2-12.1-4.2-.4-1-2.2-4.2-3.7-5.1-1.3-.7-3.1-2.3 0-2.4 2.8 0 4.9 2.6 5.5 3.7 3.2 5.4 8.4 3.9 10.5 3 .3-2.3 1.3-3.9 2.3-4.8-8-.9-16.4-4-16.4-17.8 0-3.9 1.4-7.2 3.7-9.7-.4-.9-1.6-4.6.4-9.5 0 0 3-.9 9.9 3.7 2.9-.8 5.9-1.2 9-1.2 3.1 0 6.1.4 9 1.2 6.9-4.7 9.9-3.7 9.9-3.7 2 4.9.7 8.6.4 9.5C57.6 27.8 59 31 59 35c0 13.8-8.4 16.9-16.4 17.8 1.3 1.1 2.4 3.3 2.4 6.7v9.9c0 .9.7 2.1 2.5 1.7C61.7 66.3 72 52.8 72 36.9 72 17 55.9.9 36 .9z" fill-rule="evenodd" clip-rule="evenodd"/></svg>