<svg width="228" height="16" viewBox="0 0 228 16" fill="none" xmlns="http://www.w3.org/2000/svg">
<path d="M206.085 9.82074L206.124 10.5697L206.124 10.5697L206.085 9.82074ZM227.558 10.1094C227.854 9.81962 227.859 9.34478 227.569 9.04878L222.847 4.22519C222.558 3.92919 222.083 3.92413 221.787 4.21389C221.491 4.50364 221.486 4.97849 221.775 5.27449L225.973 9.56212L221.685 13.7593C221.389 14.049 221.384 14.5239 221.674 14.8199C221.963 15.1159 222.438 15.1209 222.734 14.8312L227.558 10.1094ZM141.06 7.88143L141.126 7.13438L141.06 7.88143ZM206.124 10.5697C209.869 10.3756 215.09 10.3137 219.385 10.3007C221.53 10.2942 223.441 10.2999 224.815 10.3072C225.502 10.3108 226.055 10.3149 226.436 10.318C226.626 10.3196 226.774 10.3209 226.874 10.3219C226.923 10.3224 226.961 10.3227 226.987 10.323C227 10.3231 227.009 10.3232 227.016 10.3233C227.019 10.3233 227.021 10.3233 227.023 10.3234C227.024 10.3234 227.024 10.3234 227.025 10.3234C227.025 10.3234 227.025 10.3234 227.025 10.3234C227.025 10.3234 227.025 10.3234 227.033 9.57342C227.041 8.82347 227.041 8.82347 227.041 8.82347C227.041 8.82346 227.041 8.82346 227.041 8.82346C227.04 8.82346 227.039 8.82345 227.039 8.82344C227.037 8.82342 227.035 8.8234 227.031 8.82336C227.025 8.82329 227.015 8.82319 227.002 8.82306C226.976 8.8228 226.938 8.82242 226.888 8.82195C226.787 8.82099 226.639 8.81964 226.448 8.81806C226.066 8.81491 225.511 8.81084 224.823 8.80718C223.446 8.79986 221.531 8.79417 219.38 8.80069C215.083 8.81372 209.83 8.87552 206.046 9.07175L206.124 10.5697ZM141.126 7.13438C110.567 4.41567 81.1957 4.8891 56.5629 5.83971C31.886 6.79202 12.0593 8.21567 0.450056 7.41721L0.347132 8.91368C12.0635 9.7195 32.0547 8.28663 56.6207 7.3386C81.2308 6.38887 110.528 5.91814 140.993 8.62848L141.126 7.13438ZM206.046 9.07175C198.55 9.46048 173.232 9.99062 141.126 7.13438L140.993 8.62848C173.175 11.4914 198.563 10.9618 206.124 10.5697L206.046 9.07175Z" fill="black"/>
</svg>
