<svg enable-background="new 0 0 100 100" viewBox="0 0 100 100" xmlns="http://www.w3.org/2000/svg" class="{{ include.class }}" aria-hidden="{{ include.aria-hidden }}"><style>#inverted{display:none}#standard{display:block}@media (prefers-color-scheme:dark){#inverted{display:block}#standard{display:none}}</style><path id="inverted" d="m98.7 40c-5.9-33-44.4-35.5-44.4-35.5-9.5-.2-27.5 1.4-38.4 14.1l-15.4 34.8s8.3 17.8 8.3 39.2c0 0 1.8.4 4.8.8v-5.2c0-1.1.9-2 2-2s2 .9 2 2v5.8c1.6.2 3.4.4 5.2.6v-6.6c0-1.1.9-2 2-2s2 .9 2 2v6.8c1.7.1 3.5.3 5.2.3v-7.2c0-1.1.9-2 2-2s2 .9 2 2v7.6h5.2v-7.3c0-1.1.9-2 2-2s2 .9 2 2v7.1c1.8-.1 3.6-.3 5.2-.5v-6.6c0-1.1.9-2 2-2s2 .9 2 2v6c2.1-.4 4-.9 5.8-1.5 0 0 1.9-16.7 17.8-8.7 0 0 10.4-6.8 18.1-14.8.4 0 5.3-14.1 2.6-29.2zm-78.7 34.5c-1.1 1.4-2.2 1.7-3 1.7-.2 0-.3 0-.4 0-1-.1-2.5-.9-3.7-3.7-1.7-4.1-2-10.4.2-14.9-.6.1-1.4.5-2.3 1.2-.5.4-1.2.4-1.8 0-.5-.4-.8-1-.6-1.6.3-1 3.3-3.3 5.9-3.6 1.9-.2 4.5.5 6.3 4.5 2.7 5.5 1.8 13.2-.6 16.4zm16.9 2.6c-.6 1.8-1.7 2.1-2.4 2.1-.2 0-.3 0-.4 0-1.1-.2-2.1-1.1-2.8-2.1-.7 1-1.7 1.9-2.7 2-.6.1-2 0-2.6-2.1-1.1-3.7 5.2-9.8 5.2-9.8s7 6.4 5.7 9.9zm18.1-2.5c-1.2 1.4-2.6 2.1-4 2.1-.4 0-.8 0-1.2-.1-2.5-.7-4.6-3.6-5.4-7.8-.9-4-.8-9.3 1.7-13.3-1.5.3-3.4 1-5.1 2.5-.5.4-1.2.4-1.8.1-.5-.3-.8-1-.7-1.6.1-.2.2-.5.5-.8h.1c1.5-1.6 5.3-4.1 8.8-4.4 2.7-.2 6.3.6 8.7 5.7 3 6.4 1.5 14.1-1.6 17.6zm9-28.5c-.5 0-.9-.3-1-.8-1.3-5.5-4-12.6-9.5-15.1-.3-.2-.5-.6-.5-1s.2-.7.6-.9c5.5-2.6 8.2-9.7 9.5-15.1.1-.5.5-.8 1-.8s.9.3 1 .8c1.3 5.5 4 12.6 9.5 15.1.4.2.6.5.6.9s-.2.7-.6.9c-5.5 2.6-8.2 9.7-9.5 15.1-.3.6-.7.9-1.1.9zm17.4 15.1c-.4 5.1-4.9 14.3-9 14.9-.1 0-.2 0-.4 0-1 0-1.8-.6-2.1-1.5-.7-1.8.4-3.3 1.7-4.9 1.6-2.2 3.8-5.2 4.2-10.7.5-7.3-1.8-13.8-1.9-13.9-.3-.7.1-1.5.7-1.8.7-.3 1.5-.1 1.9.5 3.3 4.4 5.5 9.2 4.9 17.4zm8.9-22.7c-2.4 1.1-3.5 4.2-4.1 6.5-.1.2-.3.4-.5.4s-.4-.2-.5-.4c-.5-2.4-1.7-5.4-4.1-6.5-.2-.1-.3-.3-.3-.4s.1-.4.3-.4c2.4-1.1 3.5-4.2 4.1-6.5.1-.2.3-.4.5-.4s.4.2.5.4c.5 2.4 1.7 5.4 4.1 6.5.2.1.3.3.3.4s-.1.4-.3.4z"/><g id="standard"><path d="m33.1 68.1s-6.6 6.5-5.4 10.3c.7 2.3 2.1 2.3 2.7 2.2 1-.2 2-1.1 2.7-2.1.7 1 1.8 2 2.8 2.1h.4c.7 0 1.8-.3 2.5-2.2 1.2-3.5-5.7-10.3-5.7-10.3z"/><path d="m68.7 74.6c.3.7.9 1.1 1.6 1.1h.4c2.7-.6 7.1-7.7 7.1-14.3 0-7.1-3.7-15.2-5.5-16.2-.4-.2-1-.2-1.3 0-1 .7-.6 1.9.1 4.1.8 2.4 2.1 6.1 2.1 10.4 0 5.2-1.9 8.3-3.2 10.5-1.1 1.5-2 2.9-1.3 4.4z"/><path d="m52.4 78.3c3.7 0 6.4-5.5 6.4-12.7 0-6.4-2.1-11.4-5.2-12.5-1.8-.7-3.8-.4-4.8 0-1.1.4-2 .9-2.9 1.6-.9.6-1.6 1.3-2.4 2-.3.3-.4.9-.1 1.3.3.5 1 .6 1.4.3h.1c.9-.6 1.9-1.1 2.8-1.5-1.1 2.2-1.7 5.3-1.7 8.8 0 7.3 2.7 12.7 6.4 12.7z"/><path d="m20 78c3.7 0 5-7.4 5-12.4 0-6.2-1.7-10.3-4.5-10.8-1.5-.4-3.2-.2-4 .2-.8.3-1.6.7-2.2 1.2-.7.5-1.3.9-1.9 1.5-.4.3-.5.9-.3 1.3.3.5.9.7 1.4.4h.1c.8-.4 1.7-.8 2.6-1.1-.8 2.1-1.2 5-1.2 7.9 0 5.7 1.5 11.8 5 11.8z"/><path d="m79 6.9c-1.2-.7-2.7-.2-3.3.9-.7 1.2-.2 2.7.9 3.4 30 17 15.2 59.4 13 65.1-4.6 3.3-7.3 5-8.5 5.7-3.7-1.3-7.2-1.2-10.4.3-5 2.5-7.6 8-8.5 10.5-1.4.4-2.8.7-4.2 1v-5.4c0-1-.8-1.8-1.7-1.8s-1.7.8-1.7 1.8v6c-2 .3-4.1.4-6.2.6v-6.5c0-1-.8-1.8-1.7-1.8s-1.7.8-1.7 1.8v6.6.1c-2.1 0-4.2 0-6.2-.1v-6.6c0-1-.8-1.8-1.7-1.8s-1.7.8-1.7 1.8v6.5c-1.9-.1-3.8-.3-5.6-.4v-6c0-1-.8-1.8-1.7-1.8s-2.1.6-2.1 1.6v5.7c-2-.2-3.9-.5-5.6-.7v-5c0-1-.8-1.8-1.7-1.8-1 0-1.7.8-1.7 1.8v4.4c-1.3-.2-2.4-.4-3.2-.6-.7-18.9-7-35.2-8.7-39.3l12.4-31.9c5-7.1 16.8-18.4 40.6-15.7 1.4.1 2.5-.8 2.7-2.2.1-1.4-.8-2.6-2.2-2.7-9.2-1-31.9-1.3-45.3 18.1-.1.2-.2.3-.3.5l-12.8 33c-.2.6-.2 1.3 0 1.9.1.2 8.5 19.2 8.7 40.4 0 1.2.8 2.1 1.9 2.4.9.2 15.8 3.3 31.7 3.3 7.7 0 15.6-.7 22.2-2.8.8-.2 1.4-.9 1.6-1.7 0-.1 1.9-6.5 6.4-8.7 2.2-1.1 4.6-1 7.5.2.6.3 1.4.3 2 0 .1-.1 3.1-1.5 10.7-7 .4-.3.7-.6.8-1 .3-.7 21.1-51.8-14.7-72.1z"/><path d="m55.8 21c-.3.2-.5.5-.5.9s.2.7.5.9c2.6 1.6 7.2 5.5 9.6 14 .1.5.5.8 1 .8s.9-.3 1-.8c2.3-8.5 7-12.4 9.6-14 .3-.2.5-.5.5-.9s-.2-.7-.5-.9c-2.6-1.6-7.2-5.5-9.6-14-.1-.5-.5-.8-1-.8s-.9.3-1 .8c-2.4 8.5-7 12.5-9.6 14z"/><path d="m80.8 45.7c.1.3.4.4.6.4.3 0 .5-.2.6-.4.8-2.1 1.9-4 3-5.5.6-.8 1.3-1.5 1.9-2.2.1-.1.2-.3.2-.5s-.1-.4-.2-.5c-.7-.6-1.3-1.4-1.9-2.2-1.2-1.5-2.2-3.4-3-5.5-.1-.3-.4-.4-.6-.4s-.5.2-.6.4c-.9 2.2-1.9 4.1-3.1 5.6-.6.7-1.2 1.4-1.8 2-.1.1-.2.3-.2.5s.1.4.2.5c.7.6 1.3 1.3 1.9 2.2 1.2 1.7 2.2 3.5 3 5.6z"/></g></svg>