<svg enable-background="new 0 0 100 100" viewBox="0 0 100 100" xmlns="http://www.w3.org/2000/svg" class="{{ include.class }}" aria-label="{{ include.aria-label }}"><path d="m98.7 40c-5.9-33-44.4-35.5-44.4-35.5-9.5-.2-27.5 1.4-38.4 14.1l-15.4 34.8s8.3 17.8 8.3 39.2c0 0 1.8.4 4.8.8v-5.2c0-1.1.9-2 2-2s2 .9 2 2v5.8c1.6.2 3.4.4 5.2.6v-6.6c0-1.1.9-2 2-2s2 .9 2 2v6.8c1.7.1 3.5.3 5.2.3v-7.2c0-1.1.9-2 2-2s2 .9 2 2v7.6h5.2v-7.3c0-1.1.9-2 2-2s2 .9 2 2v7.1c1.8-.1 3.6-.3 5.2-.5v-6.6c0-1.1.9-2 2-2s2 .9 2 2v6c2.1-.4 4-.9 5.8-1.5 0 0 1.9-16.7 17.8-8.7 0 0 10.4-6.8 18.1-14.8.4 0 5.3-14.1 2.6-29.2zm-78.7 34.5c-1.1 1.4-2.2 1.7-3 1.7-.2 0-.3 0-.4 0-1-.1-2.5-.9-3.7-3.7-1.7-4.1-2-10.4.2-14.9-.6.1-1.4.5-2.3 1.2-.5.4-1.2.4-1.8 0-.5-.4-.8-1-.6-1.6.3-1 3.3-3.3 5.9-3.6 1.9-.2 4.5.5 6.3 4.5 2.7 5.5 1.8 13.2-.6 16.4zm16.9 2.6c-.6 1.8-1.7 2.1-2.4 2.1-.2 0-.3 0-.4 0-1.1-.2-2.1-1.1-2.8-2.1-.7 1-1.7 1.9-2.7 2-.6.1-2 0-2.6-2.1-1.1-3.7 5.2-9.8 5.2-9.8s7 6.4 5.7 9.9zm18.1-2.5c-1.2 1.4-2.6 2.1-4 2.1-.4 0-.8 0-1.2-.1-2.5-.7-4.6-3.6-5.4-7.8-.9-4-.8-9.3 1.7-13.3-1.5.3-3.4 1-5.1 2.5-.5.4-1.2.4-1.8.1-.5-.3-.8-1-.7-1.6.1-.2.2-.5.5-.8h.1c1.5-1.6 5.3-4.1 8.8-4.4 2.7-.2 6.3.6 8.7 5.7 3 6.4 1.5 14.1-1.6 17.6zm9-28.5c-.5 0-.9-.3-1-.8-1.3-5.5-4-12.6-9.5-15.1-.3-.2-.5-.6-.5-1s.2-.7.6-.9c5.5-2.6 8.2-9.7 9.5-15.1.1-.5.5-.8 1-.8s.9.3 1 .8c1.3 5.5 4 12.6 9.5 15.1.4.2.6.5.6.9s-.2.7-.6.9c-5.5 2.6-8.2 9.7-9.5 15.1-.3.6-.7.9-1.1.9zm17.4 15.1c-.4 5.1-4.9 14.3-9 14.9-.1 0-.2 0-.4 0-1 0-1.8-.6-2.1-1.5-.7-1.8.4-3.3 1.7-4.9 1.6-2.2 3.8-5.2 4.2-10.7.5-7.3-1.8-13.8-1.9-13.9-.3-.7.1-1.5.7-1.8.7-.3 1.5-.1 1.9.5 3.3 4.4 5.5 9.2 4.9 17.4zm8.9-22.7c-2.4 1.1-3.5 4.2-4.1 6.5-.1.2-.3.4-.5.4s-.4-.2-.5-.4c-.5-2.4-1.7-5.4-4.1-6.5-.2-.1-.3-.3-.3-.4s.1-.4.3-.4c2.4-1.1 3.5-4.2 4.1-6.5.1-.2.3-.4.5-.4s.4.2.5.4c.5 2.4 1.7 5.4 4.1 6.5.2.1.3.3.3.4s-.1.4-.3.4z"/></svg>